<svg id="visual" viewBox="0 0 540 960" width="540" height="960" xmlns="http://www.w3.org/2000/svg" xmlns:xlink="http://www.w3.org/1999/xlink" version="1.1"><rect x="0" y="0" width="540" height="960" fill="#F5F5F5"></rect><g transform="translate(622.5307918456974 945.8350162822072)"><path d="M252.2 -435.6C302.7 -407.6 302.9 -291.3 317.7 -204C332.4 -116.7 361.7 -58.3 396.5 20.1C431.3 98.5 471.5 197 434.5 245.7C397.5 294.4 283.1 293.4 197.8 339.3C112.5 385.2 56.3 478.1 -11.5 497.9C-79.2 517.8 -158.3 464.6 -251.6 423.2C-344.8 381.9 -452.1 352.5 -525.1 283.9C-598 215.3 -636.5 107.7 -600.8 20.6C-565.2 -66.5 -455.4 -133 -397.5 -227.7C-339.7 -322.4 -333.8 -445.2 -276.3 -469.2C-218.7 -493.1 -109.3 -418 -4.3 -410.7C100.8 -403.3 201.7 -463.6 252.2 -435.6" fill="#FA8704"></path></g></svg>