<svg id="visual" viewBox="0 0 600 900" width="600" height="900" xmlns="http://www.w3.org/2000/svg" xmlns:xlink="http://www.w3.org/1999/xlink" version="1.1"><path d="M0 199L55 199L109 190L164 244L218 127L273 172L327 109L382 163L436 154L491 172L545 181L600 91L600 0L545 0L491 0L436 0L382 0L327 0L273 0L218 0L164 0L109 0L55 0L0 0Z" fill="#43a047"></path><path d="M0 343L55 334L109 361L164 316L218 280L273 280L327 280L382 280L436 244L491 316L545 343L600 244L600 89L545 179L491 170L436 152L382 161L327 107L273 170L218 125L164 242L109 188L55 197L0 197Z" fill="#52a956"></path><path d="M0 595L55 604L109 559L164 424L218 622L273 541L327 550L382 433L436 532L491 442L545 469L600 658L600 242L545 341L491 314L436 242L382 278L327 278L273 278L218 278L164 314L109 359L55 332L0 341Z" fill="#61b164"></path><path d="M0 748L55 739L109 640L164 550L218 748L273 667L327 658L382 550L436 649L491 595L545 604L600 721L600 656L545 467L491 440L436 530L382 431L327 548L273 539L218 620L164 422L109 557L55 602L0 593Z" fill="#6fba72"></path><path d="M0 901L55 901L109 901L164 901L218 901L273 901L327 901L382 901L436 901L491 901L545 901L600 901L600 719L545 602L491 593L436 647L382 548L327 656L273 665L218 746L164 548L109 638L55 737L0 746Z" fill="#7dc280"></path></svg>