<svg id="visual" viewBox="0 0 900 675" width="900" height="675" xmlns="http://www.w3.org/2000/svg" xmlns:xlink="http://www.w3.org/1999/xlink" version="1.1"><rect x="0" y="0" width="900" height="675" fill="#FFFFFF"></rect><path d="M656 675L617.8 646.8C579.7 618.7 503.3 562.3 498.8 506.2C494.3 450 561.7 394 618.3 337.8C675 281.7 721 225.3 683 169C645 112.7 523 56.3 462 28.2L401 0L900 0L900 28.2C900 56.3 900 112.7 900 169C900 225.3 900 281.7 900 337.8C900 394 900 450 900 506.2C900 562.3 900 618.7 900 646.8L900 675Z" fill="#d5d5d5" stroke-linecap="round" stroke-linejoin="miter"></path></svg>