<?xml version="1.0" encoding="utf-8"?><svg fill="none" viewBox="0 0 720 720" xmlns="http://www.w3.org/2000/svg"><defs><clipPath id="cp-300-20"><rect height="20" width="300" y="0" x="0" /></clipPath><g id="comp_0"><g id="Shape Layer 1"><g transform="translate(3.898,10)"><animateTransform repeatCount="indefinite" type="translate" attributeName="transform" dur="0.8s" begin="0s" calcMode="spline" values="3.898 10; 169.898 10" keyTimes="0; 1" keySplines="0.333 0 0 1" fill="freeze" /><g transform="scale(0.34,0.34)"><animateTransform repeatCount="indefinite" type="scale" attributeName="transform" dur="0.08s" begin="0s" calcMode="spline" values="0.34 0.34; 1 1" keyTimes="0; 1" keySplines="1 0 0.383 1" fill="freeze" /><g transform="translate(84,-10)"><g id="Shape 1"><path stroke-linejoin="miter" stroke-linecap="round" stroke-width="18" stroke-opacity="1" stroke="#212121" fill="#212121" fill-opacity="1" d="M-81,10L35,10" /></g></g></g></g></g></g></defs><g transform="matrix(0.4,0,0,0.4,442,286)" id="Shape Layer 5"><animate repeatCount="indefinite" begin="0s" calcMode="discrete" fill="freeze" dur="2.6s" values="visible; hidden" keyTimes="0; 1" attributeName="visibility" /><g id="Shape 1"><path stroke-linejoin="round" stroke-linecap="round" stroke-width="25" stroke-opacity="1" stroke="#212121" fill="#212121" fill-opacity="1" d="M0.5,-86.5C-63,-86.5,-87,-30.5,-87,-0.5C-87,53,-41.5,87,0,87C53.5,87,87,43.5,87,-1C87,-38,61.5,-89.438,0.5,-89.438C-35.5,-89.438,-115.5,-62,-13.5,26.25C19.5,-5.25,42.5,-27,42.5,-27" /></g></g><g transform="matrix(0.4,0,0,0.4,442,370)" visibility="hidden" id="Shape Layer 6"><animate repeatCount="indefinite" begin="0.6s" calcMode="discrete" fill="freeze" dur="2.6s" values="visible; visible" keyTimes="0; 1" attributeName="visibility" /><g id="Shape 1"><path stroke-linejoin="round" stroke-linecap="round" stroke-width="25" stroke-opacity="1" stroke="#212121" fill="#212121" fill-opacity="1" d="M0.5,-86.5C-63,-86.5,-87,-30.5,-87,-0.5C-87,53,-41.5,87,0,87C53.5,87,87,43.5,87,-1C87,-38,61.5,-89.438,0.5,-89.438C-35.5,-89.438,-115.5,-62,-13.5,26.25C19.5,-5.25,42.5,-27,42.5,-27" /></g></g><g transform="matrix(0.4,0,0,0.4,442,454)" visibility="hidden" id="Shape Layer 7"><animate repeatCount="indefinite" begin="1.4s" calcMode="discrete" fill="freeze" dur="2.6s" values="visible; visible" keyTimes="0; 1" attributeName="visibility" /><g id="Shape 1"><path stroke-linejoin="round" stroke-linecap="round" stroke-width="25" stroke-opacity="1" stroke="#212121" fill="#212121" fill-opacity="1" d="M0.5,-86.5C-63,-86.5,-87,-30.5,-87,-0.5C-87,53,-41.5,87,0,87C53.5,87,87,43.5,87,-1C87,-38,61.5,-89.438,0.5,-89.438C-35.5,-89.438,-115.5,-62,-13.5,26.25C19.5,-5.25,42.5,-27,42.5,-27" /></g></g><g transform="matrix(0.65,0,0,0.65,189.5,270.5)" id="Single Ray"><animate repeatCount="indefinite" begin="0s" calcMode="discrete" fill="freeze" dur="1s" values="visible; hidden" keyTimes="0; 1" attributeName="visibility" /><use clip-path="url(#cp-300-20)" height="20" width="300" y="0" x="0" xlink:href="#comp_0" href="#comp_0" /></g><g visibility="hidden" id="Shape Layer 1"><animate repeatCount="indefinite" begin="0.48s" calcMode="discrete" fill="freeze" dur="2.68s" values="visible; visible" keyTimes="0; 1" attributeName="visibility" /><g transform="translate(209.898,277)"><animateTransform repeatCount="indefinite" type="translate" attributeName="transform" dur="0.8s" begin="0.48s" calcMode="spline" values="209.898 277; 262.898 277" keyTimes="0; 1" keySplines="0.333 0 0 1" fill="freeze" /><g transform="scale(0.34,0.34)"><animateTransform repeatCount="indefinite" type="scale" attributeName="transform" dur="0.08s" begin="0.48s" calcMode="spline" values="0.34 0.34; 1 1" keyTimes="0; 1" keySplines="1 0 0.383 1" fill="freeze" /><g transform="translate(84,-10)"><g id="Shape 1"><path stroke-linejoin="miter" stroke-linecap="round" stroke-width="12" stroke-opacity="1" stroke="#212121" fill="#212121" fill-opacity="1" d="M-98,10L35,10" /></g></g></g></g></g><g visibility="hidden" id="Shape Layer 8"><animate repeatCount="indefinite" begin="0.68s" calcMode="discrete" fill="freeze" dur="2.68s" values="visible; visible" keyTimes="0; 1" attributeName="visibility" /><g transform="translate(209.898,300)"><animateTransform repeatCount="indefinite" type="translate" attributeName="transform" dur="0.8s" begin="0.68s" calcMode="spline" values="209.898 300; 262.898 300" keyTimes="0; 1" keySplines="0.333 0 0 1" fill="freeze" /><g transform="scale(0.34,0.34)"><animateTransform repeatCount="indefinite" type="scale" attributeName="transform" dur="0.08s" begin="0.68s" calcMode="spline" values="0.34 0.34; 1 1" keyTimes="0; 1" keySplines="1 0 0.383 1" fill="freeze" /><g transform="translate(84,-10)"><g id="Shape 1"><path stroke-linejoin="miter" stroke-linecap="round" stroke-width="12" stroke-opacity="1" stroke="#212121" fill="#212121" fill-opacity="1" d="M-98,10L-36,10" /></g></g></g></g></g><g visibility="hidden" id="Shape Layer 9"><animate repeatCount="indefinite" begin="0.68s" calcMode="discrete" fill="freeze" dur="2.68s" values="visible; visible" keyTimes="0; 1" attributeName="visibility" /><g transform="translate(209.898,359)"><animateTransform repeatCount="indefinite" type="translate" attributeName="transform" dur="0.8s" begin="0.68s" calcMode="spline" values="209.898 359; 262.898 359" keyTimes="0; 1" keySplines="0.333 0 0 1" fill="freeze" /><g transform="scale(0.34,0.34)"><animateTransform repeatCount="indefinite" type="scale" attributeName="transform" dur="0.08s" begin="0.68s" calcMode="spline" values="0.34 0.34; 1 1" keyTimes="0; 1" keySplines="1 0 0.383 1" fill="freeze" /><g transform="translate(84,-10)"><g id="Shape 1"><path stroke-linejoin="miter" stroke-linecap="round" stroke-width="12" stroke-opacity="1" stroke="#212121" fill="#212121" fill-opacity="1" d="M-98,10L35,10" /></g></g></g></g></g><g visibility="hidden" id="Shape Layer 10"><animate repeatCount="indefinite" begin="0.88s" calcMode="discrete" fill="freeze" dur="2.68s" values="visible; visible" keyTimes="0; 1" attributeName="visibility" /><g transform="translate(209.898,382)"><animateTransform repeatCount="indefinite" type="translate" attributeName="transform" dur="0.8s" begin="0.88s" calcMode="spline" values="209.898 382; 262.898 382" keyTimes="0; 1" keySplines="0.333 0 0 1" fill="freeze" /><g transform="scale(0.34,0.34)"><animateTransform repeatCount="indefinite" type="scale" attributeName="transform" dur="0.08s" begin="0.88s" calcMode="spline" values="0.34 0.34; 1 1" keyTimes="0; 1" keySplines="1 0 0.383 1" fill="freeze" /><g transform="translate(84,-10)"><g id="Shape 1"><path stroke-linejoin="miter" stroke-linecap="round" stroke-width="12" stroke-opacity="1" stroke="#212121" fill="#212121" fill-opacity="1" d="M-98,10L-36,10" /></g></g></g></g></g><g visibility="hidden" id="Shape Layer 11"><animate repeatCount="indefinite" begin="1.08s" calcMode="discrete" fill="freeze" dur="2.68s" values="visible; visible" keyTimes="0; 1" attributeName="visibility" /><g transform="translate(209.898,439)"><animateTransform repeatCount="indefinite" type="translate" attributeName="transform" dur="0.8s" begin="1.08s" calcMode="spline" values="209.898 439; 262.898 439" keyTimes="0; 1" keySplines="0.333 0 0 1" fill="freeze" /><g transform="scale(0.34,0.34)"><animateTransform repeatCount="indefinite" type="scale" attributeName="transform" dur="0.08s" begin="1.08s" calcMode="spline" values="0.34 0.34; 1 1" keyTimes="0; 1" keySplines="1 0 0.383 1" fill="freeze" /><g transform="translate(84,-10)"><g id="Shape 1"><path stroke-linejoin="miter" stroke-linecap="round" stroke-width="12" stroke-opacity="1" stroke="#212121" fill="#212121" fill-opacity="1" d="M-98,10L35,10" /></g></g></g></g></g><g visibility="hidden" id="Shape Layer 12"><animate repeatCount="indefinite" begin="1.28s" calcMode="discrete" fill="freeze" dur="2.68s" values="visible; visible" keyTimes="0; 1" attributeName="visibility" /><g transform="translate(209.898,462)"><animateTransform repeatCount="indefinite" type="translate" attributeName="transform" dur="0.8s" begin="1.28s" calcMode="spline" values="209.898 462; 262.898 462" keyTimes="0; 1" keySplines="0.333 0 0 1" fill="freeze" /><g transform="scale(0.34,0.34)"><animateTransform repeatCount="indefinite" type="scale" attributeName="transform" dur="0.08s" begin="1.28s" calcMode="spline" values="0.34 0.34; 1 1" keyTimes="0; 1" keySplines="1 0 0.383 1" fill="freeze" /><g transform="translate(84,-10)"><g id="Shape 1"><path stroke-linejoin="miter" stroke-linecap="round" stroke-width="12" stroke-opacity="1" stroke="#212121" fill="#212121" fill-opacity="1" d="M-98,10L-36,10" /></g></g></g></g></g><g transform="matrix(1,0,0,1,-13.68,-24.484)" id="Box 2"><animate repeatCount="indefinite" begin="0s" calcMode="discrete" fill="freeze" dur="2.64s" values="visible; hidden" keyTimes="0; 1" attributeName="visibility" /><g id="Shape 1"><path stroke-linejoin="round" stroke-linecap="round" stroke-width="12" stroke-opacity="1" stroke="#212121" d="M541.326,175.583L206.496,175.854L205.374,593.386L541.976,592.812L541.986,178.333" /></g></g><g transform="matrix(1,0,0,1,360,361)" id="Shape Layer 13"><animate repeatCount="indefinite" begin="0s" calcMode="discrete" fill="freeze" dur="2.6s" values="visible; hidden" keyTimes="0; 1" attributeName="visibility" /><g id="Rectangle 1" transform="matrix(1,0,0,1,0.693,-192.814)"><rect height="34.371" width="117.387" y="0" x="0" stroke-linejoin="round" stroke-linecap="round" stroke-width="12" stroke-opacity="1" stroke="#212121" fill="#212121" fill-opacity="1" /></g></g></svg>