<?xml version="1.0" encoding="utf-8"?>
<!-- Generator: Adobe Illustrator 27.5.0, SVG Export Plug-In . SVG Version: 6.00 Build 0)  -->
<svg version="1.1" id="Layer_1" xmlns="http://www.w3.org/2000/svg" xmlns:xlink="http://www.w3.org/1999/xlink" x="0px" y="0px"
	 viewBox="0 0 7000 4000" style="enable-background:new 0 0 7000 4000;" xml:space="preserve">
<g>
	<g>
		<defs>
			<rect id="SVGID_1_" x="-0.002" width="7000" height="4000"/>
		</defs>
		<clipPath id="SVGID_00000181084469229955272070000016451655431243901576_">
			<use xlink:href="#SVGID_1_"  style="overflow:visible;"/>
		</clipPath>
		<g style="clip-path:url(#SVGID_00000181084469229955272070000016451655431243901576_);">
			<defs>
				<rect id="SVGID_00000133494106240977396210000003057761313129837709_" x="-0.002" width="7000" height="4000"/>
			</defs>
			<clipPath id="SVGID_00000051378361711283441010000008835194426627864509_">
				<use xlink:href="#SVGID_00000133494106240977396210000003057761313129837709_"  style="overflow:visible;"/>
			</clipPath>
			
				<rect x="-0.002" style="clip-path:url(#SVGID_00000051378361711283441010000008835194426627864509_);fill-rule:evenodd;clip-rule:evenodd;fill:#FF0000;" width="7000" height="4000"/>
			
				<path style="opacity:0.2;clip-path:url(#SVGID_00000051378361711283441010000008835194426627864509_);fill-rule:evenodd;clip-rule:evenodd;fill:#FF6600;" d="
				M6999.998,4000V0H1282.826c-215.609,823.469-5.639,1781.988,632.086,2876.254c216.582,391.262,358.975,765.801,427.791,1123.746
				H6999.998z"/>
			
				<path style="opacity:0.2;clip-path:url(#SVGID_00000051378361711283441010000008835194426627864509_);fill-rule:evenodd;clip-rule:evenodd;fill:#FF6600;" d="
				M6999.998,4000V0H1238.523c-13.906,713.547,220.697,1509.461,706.26,2388.543c299.27,570.625,455.727,1107.738,469.916,1611.457
				H6999.998z"/>
			
				<path style="opacity:0.2;clip-path:url(#SVGID_00000051378361711283441010000008835194426627864509_);fill-rule:evenodd;clip-rule:evenodd;fill:#FF6600;" d="
				M6999.998,4000V0H1247.619c-126.039,846.445,95.035,1812.738,665.855,2899.789c189.828,380.859,321.713,747.602,395.645,1100.211
				H6999.998z"/>
			
				<path style="opacity:0.2;clip-path:url(#SVGID_00000051378361711283441010000008835194426627864509_);fill-rule:evenodd;clip-rule:evenodd;fill:#FF6600;" d="
				M6999.998,4000V0h-7000v3248.863c108.381,257.309,186.66,507.672,234.871,751.137h1.23H6999.998z"/>
			
				<path style="opacity:0.2;clip-path:url(#SVGID_00000051378361711283441010000008835194426627864509_);fill-rule:evenodd;clip-rule:evenodd;fill:#FF6600;" d="
				M6999.998,4000V0h-7000v785.957c80.92,630.106,348.893,1317.297,804.229,2061.664
				c232.51,400.063,391.625,784.164,477.674,1152.379H6999.998z"/>
			
				<path style="opacity:0.15;clip-path:url(#SVGID_00000051378361711283441010000008835194426627864509_);fill-rule:evenodd;clip-rule:evenodd;fill:#FFFF00;" d="
				M-0.004,3385.418c38.621-156.813,38.688-317.434,0-481.879V3385.418z"/>
			
				<path style="opacity:0.15;clip-path:url(#SVGID_00000051378361711283441010000008835194426627864509_);fill-rule:evenodd;clip-rule:evenodd;fill:#FFFF00;" d="
				M-0.004,4000c34.324-155.773,34.356-315.109,0-478.016V4000z"/>
			
				<path style="opacity:0.15;clip-path:url(#SVGID_00000051378361711283441010000008835194426627864509_);fill-rule:evenodd;clip-rule:evenodd;fill:#FFFF00;" d="
				M-0.004,3612.656c34.59-163.633,34.525-331.027,0-502.18V3612.656z"/>
			
				<path style="opacity:0.15;clip-path:url(#SVGID_00000051378361711283441010000008835194426627864509_);fill-rule:evenodd;clip-rule:evenodd;fill:#FFFF00;" d="
				M-0.004,15.953v4000h5797.723c602.422-954.918-160.461-2048.152-2296.238-3280.48
				c-404.346-244.758-734.402-484.52-993.734-719.52H-0.004z"/>
			
				<path style="opacity:0.15;clip-path:url(#SVGID_00000051378361711283441010000008835194426627864509_);fill-rule:evenodd;clip-rule:evenodd;fill:#FFFF00;" d="
				M-0.004,4015.953h3188.857c646.414-954.918-172.184-2048.152-2464.057-3280.48C450.955,581.004,211.875,428.703-0.004,278.117
				V4015.953z"/>
			
				<path style="opacity:0.15;clip-path:url(#SVGID_00000051378361711283441010000008835194426627864509_);fill-rule:evenodd;clip-rule:evenodd;fill:#FFFF00;" d="
				M6999.996,0v4000H4806.68c-2512.465-821.422-3774.068-1754.438-3777.598-2799.688C974.533,783.082,631.398,382.984,0,0H6999.996z
				"/>
			
				<path style="opacity:0.15;clip-path:url(#SVGID_00000051378361711283441010000008835194426627864509_);fill-rule:evenodd;clip-rule:evenodd;fill:#FFFF00;" d="
				M6999.996,0v3170.199C5825.287,2552.102,5308.25,1879.52,5449.965,1152.383C5473.521,752.316,5209.955,368.227,4661.488,0
				H6999.996z"/>
		</g>
	</g>
</g>
</svg>
